<svg id="Capa_1" data-name="Capa 1" xmlns="http://www.w3.org/2000/svg" viewBox="0 0 400 750"><defs><style>.cls-1{fill:#40596b;}.cls-2{fill:#ffd15c;}.cls-3{fill:#ff7058;}.cls-4{fill:#cdd6e0;}.cls-5{isolation:isolate;font-size:25.11px;font-family:Arial-BoldMT, Arial;font-weight:700;}.cls-6{fill:#fb2734;}.cls-7{fill:#04b4ec;}.cls-8{fill:#9ecd5c;}.cls-9{fill:#ecd100;}</style></defs><title>remote_controller_mobile</title><rect class="cls-1" width="400" height="750" rx="43.78"/><path d="M51.25,439.28h9l11.17-9.72v31.1L60.21,451h-9V439.28m24.62,3.89H93.75v3.89H75.87Z"/><path d="M51.25,380.81h9L71.38,371V402.2l-11.17-9.72h-9V380.81m24.62,3.89h6.69v-5.82h4.49v5.82h6.7v3.9h-6.7v5.82H82.56V388.6H75.87Z"/><path d="M55.3,488.17l35.36,30.71-3.17,2.84L78.6,514v6.21l-11.23-9.78h-9V498.7H61l-8.79-7.78,3.18-2.75m23.31.69v14l-8.08-7Z"/><path d="M182.12,499.56h35.7v7.77h-35.7Z"/><path d="M182.12,382.85h13.41V371.2h8.94v11.65H217.9v7.79H204.47v11.65h-8.94V390.64H182.12Z"/><path d="M303.7,371h47.6v5.19H303.7V371m0,13h47.6v5.17H303.7V384m0,13h47.6v5.19H303.7Z"/><path d="M330.58,496.6c7.34,0,13.29,5.18,13.29,11.56s-5.95,11.55-13.29,11.55h-7.16v-3.56h7.16c5.08-.19,9-3.93,8.81-8.35-.21-4.15-4-7.47-8.81-7.65H319l6.29,5.49-2.89,2.52-11.23-9.78,11.23-9.78,2.91,2.51L319,496.6h11.6m-15.3,19.55h4.09v3.56h-4.09Z"/><path d="M185.94,564.35v31.11l28.12-15.55Z"/><path d="M76.39,654.2h10.2V623.09H76.39M56,654.2h10.2V623.09H56Z"/><path d="M345.4,654.2H309.62V623.09H345.4Z"/><path d="M328.25,562.52v31.11l25.35-15.55m-52.19,15.55,25.34-15.55-25.34-15.56Z"/><path d="M71.28,579.91l25.34,15.55V564.35M69.78,595.46V564.35L44.43,579.91Z"/><path class="cls-2" d="M270.53,222.11c0,13.3-3.86,25.62-12.83,35.65l43.6,37.89c19.23-18.95,30.77-46.8,30.77-73.54a101.94,101.94,0,0,0-30.77-73.54l-43.6,37.88C265.4,197.59,270.53,208.74,270.53,222.11Z"/><path class="cls-2" d="M129.48,222.11c0-13.37,3.85-25.63,12.82-35.66L98.71,148.57c-19.31,18.94-30.78,46.79-30.78,73.54a102,102,0,0,0,30.78,73.54L142.3,257.8C133.33,247.73,129.48,235.48,129.48,222.11Z"/><path class="cls-3" d="M241,272.25c-11.54,7.8-25.65,11.14-41,11.14s-29.49-3.34-41-11.14l-43.61,37.88c21.8,16.72,53.86,26.74,84.63,26.74,33.34,0,62.9-10,84.63-26.74Z"/><path class="cls-3" d="M159,172c11.54-7.8,25.63-11.15,41-11.15s29.49,3.35,41,11.15l43.59-37.89c-21.8-16.71-53.93-26.74-84.63-26.74s-62.9,10-84.63,26.74Z"/><path class="cls-4" d="M40.2,558.87h64.6c5.63,0,10.2,4,10.2,8.87v20.68c0,4.89-4.57,8.86-10.2,8.86H40.2c-5.63,0-10.2-4-10.2-8.86V567.74C30,562.84,34.57,558.87,40.2,558.87Z"/><ellipse class="cls-4" cx="200" cy="222.11" rx="48.47" ry="42.12"/><path class="cls-4" d="M40.2,356.48h64.6c5.63,0,10.2,4,10.2,8.87v94.54c0,4.9-4.57,8.87-10.2,8.87H40.2c-5.63,0-10.2-4-10.2-8.87V365.35C30,360.45,34.57,356.48,40.2,356.48Z"/><path class="cls-4" d="M40.2,474.67h64.6c5.63,0,10.2,4,10.2,8.86v41.36c0,4.9-4.57,8.87-10.2,8.87H40.2c-5.63,0-10.2-4-10.2-8.87V483.53C30,478.63,34.57,474.67,40.2,474.67Z"/><path class="cls-4" d="M167.7,356.48h64.6c5.63,0,10.2,4,10.2,8.87V524.89c0,4.9-4.57,8.87-10.2,8.87H167.7c-5.63,0-10.2-4-10.2-8.87V365.35C157.5,360.45,162.07,356.48,167.7,356.48Z"/><text class="cls-5" transform="translate(178.43 455) scale(1.15 1)">CH</text><path class="cls-4" d="M295.2,356.48h64.6c5.63,0,10.2,4,10.2,8.87V524.89c0,4.9-4.57,8.87-10.2,8.87H295.2c-5.63,0-10.2-4-10.2-8.87V365.35C285,360.45,289.57,356.48,295.2,356.48Z"/><path class="cls-4" d="M167.7,560.7h64.6c5.63,0,10.2,4,10.2,8.87v20.68c0,4.89-4.57,8.86-10.2,8.86H167.7c-5.63,0-10.2-4-10.2-8.86V569.57C157.5,564.67,162.07,560.7,167.7,560.7Z"/><path class="cls-4" d="M295.2,558.87h64.6c5.63,0,10.2,4,10.2,8.87v20.68c0,4.89-4.57,8.86-10.2,8.86H295.2c-5.63,0-10.2-4-10.2-8.86V567.74C285,562.84,289.57,558.87,295.2,558.87Z"/><path class="cls-4" d="M40.2,619.44h64.6c5.63,0,10.2,4,10.2,8.86V649c0,4.89-4.57,8.86-10.2,8.86H40.2c-5.63,0-10.2-4-10.2-8.86V628.3C30,623.41,34.57,619.44,40.2,619.44Z"/><path class="cls-4" d="M167.7,619.44h64.6c5.63,0,10.2,4,10.2,8.86V649c0,4.89-4.57,8.86-10.2,8.86H167.7c-5.63,0-10.2-4-10.2-8.86V628.3C157.5,623.41,162.07,619.44,167.7,619.44Z"/><path class="cls-4" d="M294.83,619.44h64.6c5.63,0,10.2,4,10.2,8.86V649c0,4.89-4.57,8.86-10.2,8.86h-64.6c-5.64,0-10.2-4-10.2-8.86V628.3C284.63,623.41,289.19,619.44,294.83,619.44Z"/><path class="cls-4" d="M327.2,30h45.6c4,0,7.2,4,7.2,9V81c0,5-3.22,9-7.2,9H327.2c-4,0-7.2-4-7.2-9V39C320,34,323.22,30,327.2,30Z"/><path class="cls-6" d="M40.2,681.59H87.8c5.63,0,10.2,4,10.2,8.86v20.69C98,716,93.43,720,87.8,720H40.2c-5.63,0-10.2-4-10.2-8.86V690.45C30,685.56,34.57,681.59,40.2,681.59Z"/><path class="cls-7" d="M311.83,681.59h47.6c5.63,0,10.2,4,10.2,8.86v20.69c0,4.89-4.57,8.86-10.2,8.86h-47.6c-5.64,0-10.2-4-10.2-8.86V690.45C301.63,685.56,306.19,681.59,311.83,681.59Z"/><path class="cls-8" d="M130.86,681.59h47.6c5.63,0,10.2,4,10.2,8.86v20.69c0,4.89-4.57,8.86-10.2,8.86h-47.6c-5.63,0-10.2-4-10.2-8.86V690.45C120.66,685.56,125.23,681.59,130.86,681.59Z"/><path class="cls-9" d="M221.16,681.59h47.6c5.64,0,10.2,4,10.2,8.86v20.69c0,4.89-4.56,8.86-10.2,8.86h-47.6c-5.63,0-10.2-4-10.2-8.86V690.45C211,685.56,215.53,681.59,221.16,681.59Z"/><path class="cls-4" d="M27.2,30H72.8c4,0,7.2,4,7.2,9V81c0,5-3.22,9-7.2,9H27.2c-4,0-7.2-4-7.2-9V39C20,34,23.22,30,27.2,30Z"/><path class="cls-4" d="M177.2,30h45.6c4,0,7.2,4,7.2,9V81c0,5-3.22,9-7.2,9H177.2c-4,0-7.2-4-7.2-9V39C170,34,173.22,30,177.2,30Z"/><path class="cls-4" d="M252.2,30h45.6c4,0,7.2,4,7.2,9V81c0,5-3.22,9-7.2,9H252.2c-4,0-7.2-4-7.2-9V39C245,34,248.22,30,252.2,30Z"/><path class="cls-4" d="M102.2,30h45.6c4,0,7.2,4,7.2,9V81c0,5-3.22,9-7.2,9H102.2c-4,0-7.2-4-7.2-9V39C95,34,98.22,30,102.2,30Z"/><path class="cls-4" d="M27.2,99.13H72.8c4,0,7.2,4,7.2,9v42c0,5-3.22,9-7.2,9H27.2c-4,0-7.2-4-7.2-9v-42C20,103.16,23.22,99.13,27.2,99.13Z"/><path class="cls-4" d="M327.2,99.13h45.6c4,0,7.2,4,7.2,9v42c0,5-3.22,9-7.2,9H327.2c-4,0-7.2-4-7.2-9v-42C320,103.16,323.22,99.13,327.2,99.13Z"/></svg>